Coordinates
version=1
nRows=19
nColumns=34
inDegrees=yes

Units are S.I. units (second, meters, Newtons, ...)
If the header above contains a line with 'inDegrees', this indicates whether rotational values are in degrees (yes) or radians (no).

endheader
time	pelvis_tilt	pelvis_list	pelvis_rotation	pelvis_tx	pelvis_ty	pelvis_tz	hip_flexion_r	hip_adduction_r	hip_rotation_r	knee_angle_r	ankle_angle_r	subtalar_angle_r	mtp_angle_r	hip_flexion_l	hip_adduction_l	hip_rotation_l	knee_angle_l	ankle_angle_l	subtalar_angle_l	mtp_angle_l	lumbar_extension	lumbar_bending	lumbar_rotation	arm_flex_r	arm_add_r	arm_rot_r	elbow_flex_r	pro_sup_r	arm_flex_l	arm_add_l	arm_rot_l	elbow_flex_l	pro_sup_l
      3.01666670	     -6.53647198	      1.04446330	     -2.26124077	     -0.01662258	      1.13999573	     -0.07543486	      0.30496189	      0.31075038	     -5.91411591	      0.00000000	      9.68191342	      0.72906634	      0.00000000	     -0.86193513	     -0.62209081	    -20.49877269	      0.00000000	      7.29218565	      2.93906532	      0.00000000	      0.23380407	      2.27055209	      1.57774666	     -5.36048774	     -8.79687085	      8.42105955	     23.16527062	     76.97485315	     -4.54371522	    -10.58259300	     13.81835287	     27.59207526	     76.91384453
      3.03333330	     -6.66104895	      1.08640773	     -2.25637305	     -0.01780327	      1.14239153	     -0.07605835	      0.53521830	      0.29629081	     -6.07577494	      0.00000000	      9.59911272	      0.66780889	      0.00000000	     -0.61002657	     -0.57268551	    -20.55213754	      0.00000000	      7.20028994	      2.91958732	      0.00000000	     -0.40294062	      2.28030588	      1.71377836	     -5.88648984	     -8.81786152	      8.43310594	     22.91511292	     76.97102801	     -5.20303932	    -10.60533322	     13.83369988	     27.35510467	     76.93251764
      3.05000000	     -6.88564261	      1.25383713	     -2.32499377	     -0.01718392	      1.14359115	     -0.07585007	      0.76001438	      0.11791467	     -6.46143305	      0.00000000	      9.06030920	      0.58361689	      0.00000000	     -0.37030613	     -0.40213966	    -20.73104746	      0.00000000	      6.43236977	      2.71532195	      0.00000000	     -0.47188979	      2.16209305	      2.13065491	     -6.66701302	     -8.77967725	      8.40163266	     22.29159118	     76.93811249	     -5.98825830	    -10.58076498	     13.69870773	     27.06751220	     77.05108593
      3.06666670	     -7.53283455	      1.38017919	     -2.51191271	     -0.01660221	      1.14072378	     -0.07641153	      1.69745934	     -0.02880952	     -6.17771667	      0.47032791	      9.21241934	      0.27745854	      0.00000000	      0.32279188	     -0.26149883	    -20.16681089	      0.00000000	      5.60171482	      1.18042712	      0.00000000	     -0.36684443	      2.10777651	      2.76067960	     -7.23413389	     -8.63968880	      8.06084943	     20.98257274	     76.75677105	     -6.62229008	    -10.48137912	     13.05465943	     26.59231274	     77.60823300
      3.08333330	     -7.60578798	      1.49315255	     -2.63168894	     -0.01499576	      1.14426720	     -0.07597826	      1.88699282	     -0.19969746	     -6.35607826	      0.81005877	      9.08474844	      0.20876829	      0.00000000	      0.38846646	     -0.10771328	    -20.15185000	      0.00000000	      5.41814055	      1.06324265	      0.00000000	     -0.99723681	      2.08633387	      2.89852934	     -7.79703699	     -8.68922237	      8.01697097	     20.70029383	     76.73090055	     -7.55835857	    -10.48783712	     13.03672047	     26.23287335	     77.68684950
      3.10000000	     -8.04474782	      1.65185303	     -2.74411785	     -0.01272408	      1.14066488	     -0.07660090	      2.67302850	     -0.42428231	     -6.34030214	      1.50121691	      9.35476801	     -0.03496727	      0.00000000	      1.24106369	     -0.07605740	    -19.79327982	      0.86398284	      5.22039535	     -0.14028763	      0.00000000	     -1.27129108	      2.03856708	      2.95448840	     -8.35116887	     -8.63505083	      7.58473550	     20.17554987	     76.54102458	     -8.67238688	    -10.47055540	     12.60147306	     25.76078182	     78.12278400
      3.11666670	     -8.36785512	      1.76347511	     -2.78748068	     -0.01409460	      1.13514499	     -0.07628529	      3.25393426	     -0.58979245	     -6.39750979	      2.12470842	      9.59980331	     -0.29617980	      0.00000000	      2.12565820	     -0.12334766	    -19.57383310	      2.10544290	      5.64358135	     -1.01813242	      0.00000000	     -1.68666707	      2.04624414	      3.03787719	     -9.03256468	     -8.61683441	      7.19912871	     19.79311341	     76.36857579	     -9.83691360	    -10.46894558	     12.24267334	     25.33779433	     78.47558117
      3.13333330	     -8.72046376	      1.89103378	     -2.85695282	     -0.01402128	      1.13303048	     -0.07642612	      4.06288714	     -0.76705628	     -6.24561457	      3.02102977	     10.15409822	     -0.74084416	      0.00000000	      3.18071986	     -0.16171764	    -19.29681921	      3.56978401	      6.31515832	     -1.98099187	      0.00000000	     -2.14492652	      2.05397930	      3.14430199	     -9.82016985	     -8.56781022	      6.81174814	     19.31602442	     76.17944947	    -11.02549533	    -10.49365503	     11.94012176	     24.85160785	     78.78461486
      3.15000000	     -9.34887650	      2.05886076	     -2.66864570	     -0.00736227	      1.13624205	     -0.07662326	      5.02259702	     -0.98348258	     -6.22729128	      3.91258586	     10.39193315	     -1.58842544	      0.00000000	      4.53303074	     -0.16307641	    -18.70372887	      5.13218564	      6.74255512	     -3.32684201	      0.00000000	     -2.12722670	      1.98709934	      3.36478692	    -11.17133430	     -8.18044509	      6.31773535	     17.67048927	     75.84710993	    -12.14252718	    -10.45855185	     11.50844955	     24.09490908	     79.30312924
      3.16666670	     -9.87431803	      2.28534314	     -2.53731522	     -0.00499392	      1.13388211	     -0.07572557	      5.96489433	     -1.23865700	     -5.88029228	      5.08888735	     10.65174616	     -2.58861961	      0.00000000	      5.84363025	     -0.12529463	    -18.05098753	      6.89179606	      7.14172106	     -4.82271183	      0.00000000	     -2.43547552	      1.79548079	      3.48499851	    -12.59748885	     -7.62341857	      6.06360237	     15.29954464	     75.50990595	    -13.16902226	    -10.55109073	     11.27360379	     23.18537549	     79.98339109
      3.18333330	    -10.41190838	      2.39684811	     -2.47740526	     -0.00837347	      1.12964758	     -0.07504065	      7.14411714	     -1.30810967	     -5.24582168	      6.61956041	     11.25361284	     -3.78006019	      0.00000000	      7.33589316	     -0.24260539	    -17.31554986	      8.81806863	      7.92250667	     -6.43644863	      0.00000000	     -2.80704149	      1.77804540	      3.71686590	    -14.18669997	     -7.01969544	      6.25328184	     12.70759842	     75.34233509	    -13.94142241	    -10.65037244	     11.32529576	     22.36209009	     80.56835699
      3.20000000	    -10.35915293	      2.49097303	     -2.46243547	     -0.00661306	      1.12631823	     -0.07534213	      7.92477704	     -1.41684908	     -4.78477542	      8.57343284	     12.15808578	     -4.58574034	      0.00000000	      8.16156606	     -0.36108615	    -16.75739721	     10.91409234	      9.06375920	     -7.35089424	      0.00000000	     -4.28686851	      1.70106445	      3.66613199	    -15.31297752	     -6.75052841	      6.38088074	     11.65800753	     75.33418554	    -14.63184263	    -10.75245026	     11.42576347	     21.89980030	     80.69861558
      3.21666670	    -11.71583648	      2.55159911	     -2.40260901	     -0.00401440	      1.12164369	     -0.07603587	     10.51485860	     -1.32693221	     -3.13243532	     10.93731176	     12.30072367	     -7.40935573	      0.00000000	     10.78421712	     -0.52137516	    -15.44640340	     13.39334380	      9.39053078	    -10.12967654	      0.00000000	     -3.40796453	      1.90986947	      3.96486185	    -15.87135115	     -6.16209208	      7.28660646	      7.91735144	     75.41348721	    -15.10868290	    -10.84770914	     12.37440323	     20.63698170	     81.37251986
      3.23333330	    -12.00681028	      2.61721002	     -2.39703545	     -0.00177331	      1.11989365	     -0.07629877	     11.83736189	     -1.26120793	     -1.54928447	     13.13241022	     12.66351982	    -10.11718261	      0.00000000	     12.22463437	     -0.59825854	    -14.16916313	     15.83394462	      9.60664460	    -12.83124398	      0.00000000	     -4.10282064	      1.97656176	      3.58739332	    -15.33937034	     -5.94006532	      9.90320058	      4.70819764	     75.90291757	    -15.41158558	    -10.95584079	     15.10552063	     19.12280526	     82.54274106
      3.25000000	    -12.71209683	      2.70119616	     -2.47926916	     -0.00302026	      1.12146345	     -0.07593476	     13.86188768	     -1.16218467	     -0.29055996	     15.52087664	     13.27958416	    -12.26978480	      0.00000000	     14.37243927	     -0.72202314	    -13.08355077	     18.74157515	     10.01455220	    -15.17961994	      0.00000000	     -4.41954987	      2.01004273	      3.87572111	    -15.11821195	     -5.85352632	     12.77345895	      3.38350193	     76.42793240	    -15.17639269	    -11.19730871	     17.93829867	     18.13498850	     83.10787491
      3.26666670	    -13.36610365	      2.76282995	     -2.53962546	     -0.00080472	      1.11853332	     -0.07582114	     15.90533730	     -1.03874861	      0.73905151	     18.04461980	     14.00635752	    -13.97946864	      0.00000000	     16.59524454	     -0.92311295	    -12.19031283	     21.92296418	     10.69041490	    -16.99819877	      0.00000000	     -4.81876613	      2.03302783	      4.77284528	    -14.64497762	     -5.66752726	     14.19503482	      2.84828423	     76.63802834	    -14.53424146	    -11.31122467	     19.18333827	     17.81880986	     83.10697723
      3.28333330	    -14.04585564	      2.85799364	     -2.39516446	      0.00259242	      1.11587304	     -0.07668118	     17.92820695	     -0.91852734	      2.02762084	     20.67091306	     14.26593833	    -16.62454114	      0.00000000	     18.98403615	     -0.96311409	    -10.93690314	     25.37407456	     10.98762962	    -19.38489047	      0.00000000	     -5.33500229	      1.96643701	      5.26366682	    -13.54053708	     -5.70207849	     16.32502399	      2.84686321	     76.87760671	    -13.42077967	    -11.33343727	     21.12617512	     17.15109622	     83.06364669
      3.30000000	    -14.07697996	      2.82148527	     -2.35505790	      0.00612684	      1.11182297	     -0.07503485	     19.07135117	     -0.49574528	      3.68411606	     23.11137536	     14.36023680	    -19.79380871	      0.00000000	     20.56009483	     -1.13257963	     -9.68360211	     28.68968629	     11.12721459	    -21.79395564	      0.00000000	     -6.69994471	      1.96387950	      5.93022793	    -12.62055638	     -6.01606480	     23.20565407	      4.07474779	     76.48848261	    -11.51481978	    -11.58847550	     27.65401424	     15.78539202	     82.17322089
      3.31666670	    -14.10896556	      2.82452244	     -2.12253317	      0.01316125	      1.10626839	     -0.07635365	     20.20584777	     -0.35663215	      4.32936545	     25.71061229	     15.73405872	    -20.95362920	      0.00000000	     22.16358306	     -1.21266015	     -8.67816145	     32.12697012	     12.29417576	    -22.75621348	      0.00000000	     -7.87785992	      1.93835875	      6.20777952	    -11.77424606	     -6.14244177	     23.52167643	      4.26900518	     76.26590023	    -10.51070082	    -11.39695415	     27.85554581	     15.92419754	     81.94722887
